{
	"asset":{
		"generator":"Khronos glTF Blender I/O v3.6.27",
		"version":"2.0"
	},
	"scene":0,
	"scenes":[
		{
			"name":"Scene",
			"nodes":[
				0
			]
		}
	],
	"nodes":[
		{
			"mesh":0,
			"name":"Plane",
			"rotation":[
				0.7071068286895752,
				0,
				0,
				0.7071068286895752
			],
			"scale":[
				0.10000000149011612,
				1,
				1
			],
			"translation":[
				0,
				0,
				1
			]
		}
	],
	"meshes":[
		{
			"name":"Plane",
			"primitives":[
				{
					"attributes":{
						"POSITION":0,
						"NORMAL":1,
						"TEXCOORD_0":2
					},
					"indices":3
				}
			]
		}
	],
	"accessors":[
		{
			"bufferView":0,
			"componentType":5126,
			"count":15,
			"max":[
				1,
				0.5182065963745117,
				1.3779095763965122e-15
			],
			"min":[
				-1,
				-1,
				-1.0379149761874373e-09
			],
			"type":"VEC3"
		},
		{
			"bufferView":1,
			"componentType":5126,
			"count":15,
			"type":"VEC3"
		},
		{
			"bufferView":2,
			"componentType":5126,
			"count":15,
			"type":"VEC2"
		},
		{
			"bufferView":3,
			"componentType":5123,
			"count":39,
			"type":"SCALAR"
		}
	],
	"bufferViews":[
		{
			"buffer":0,
			"byteLength":180,
			"byteOffset":0,
			"target":34962
		},
		{
			"buffer":0,
			"byteLength":180,
			"byteOffset":180,
			"target":34962
		},
		{
			"buffer":0,
			"byteLength":120,
			"byteOffset":360,
			"target":34962
		},
		{
			"buffer":0,
			"byteLength":78,
			"byteOffset":480,
			"target":34963
		}
	],
	"buffers":[
		{
			"byteLength":560,
			"uri":"data:application/octet-stream;base64,"
		}
	]
}
